<svg id="Capa_1" enable-background="new 0 0 512 512" height="512" viewBox="0 0 512 512" width="512" xmlns="http://www.w3.org/2000/svg"><path d="m445 167.364c4.143 0 7.5-3.357 7.5-7.5v-52.364c0-12.406-10.094-22.5-22.5-22.5h-7.5v-20c0-12.406-10.094-22.5-22.5-22.5h-7.5v-20c0-12.406-10.094-22.5-22.5-22.5h-288c-12.407 0-22.5 10.094-22.5 22.5v41.365c0 4.143 3.358 7.5 7.5 7.5s7.5-3.357 7.5-7.5v-41.365c0-4.136 3.364-7.5 7.5-7.5h288c4.136 0 7.5 3.364 7.5 7.5v382c0 4.136-3.364 7.5-7.5 7.5h-288c-4.136 0-7.5-3.364-7.5-7.5v-308.635c0-4.143-3.358-7.5-7.5-7.5s-7.5 3.357-7.5 7.5v308.635c0 12.406 10.093 22.5 22.5 22.5h7.5v20c0 12.406 10.093 22.5 22.5 22.5h7.5v20c0 12.406 10.093 22.5 22.5 22.5h288c12.406 0 22.5-10.094 22.5-22.5v-297.821c0-4.143-3.357-7.5-7.5-7.5s-7.5 3.357-7.5 7.5v297.821c0 4.136-3.364 7.5-7.5 7.5h-288c-4.136 0-7.5-3.364-7.5-7.5v-20h185.367c4.143 0 7.5-3.357 7.5-7.5s-3.357-7.5-7.5-7.5h-207.867c-4.135 0-7.5-3.364-7.5-7.5v-20h265.5c12.406 0 22.5-10.094 22.5-22.5v-347h7.5c4.136 0 7.5 3.364 7.5 7.5v382c0 4.136-3.364 7.5-7.5 7.5h-48.319c-4.143 0-7.5 3.357-7.5 7.5s3.357 7.5 7.5 7.5h48.319c12.406 0 22.5-10.094 22.5-22.5v-347h7.5c4.136 0 7.5 3.364 7.5 7.5v52.364c0 4.143 3.357 7.5 7.5 7.5z"/><path d="m110 124v52c0 6.341 5.159 11.5 11.5 11.5h52c6.341 0 11.5-5.159 11.5-11.5v-38.676l15.37-13.12c3.15-2.689 3.524-7.423.834-10.573-2.688-3.151-7.423-3.524-10.574-.835l-6.924 5.91c-1.919-3.684-5.773-6.206-10.207-6.206h-52c-6.34 0-11.499 5.159-11.499 11.5zm15 3.5h45v2.907l-14.882 12.704-7.106-7.698c-2.809-3.042-7.554-3.232-10.598-.424-3.044 2.81-3.233 7.554-.424 10.598l12 13c2.733 2.96 7.317 3.233 10.381.617l10.63-9.075v22.371h-45v-45z"/><path d="m334.5 124.5h-120c-4.142 0-7.5 3.357-7.5 7.5s3.358 7.5 7.5 7.5h120c4.143 0 7.5-3.357 7.5-7.5s-3.357-7.5-7.5-7.5z"/><path d="m334.5 156.5h-120c-4.142 0-7.5 3.357-7.5 7.5s3.358 7.5 7.5 7.5h120c4.143 0 7.5-3.357 7.5-7.5s-3.357-7.5-7.5-7.5z"/><path d="m110 273c0 6.341 5.159 11.5 11.5 11.5h52c6.341 0 11.5-5.159 11.5-11.5v-52c0-6.341-5.159-11.5-11.5-11.5h-52c-6.341 0-11.5 5.159-11.5 11.5zm15-48.5h45v45h-45z"/><path d="m334.5 221.5h-120c-4.142 0-7.5 3.357-7.5 7.5s3.358 7.5 7.5 7.5h120c4.143 0 7.5-3.357 7.5-7.5s-3.357-7.5-7.5-7.5z"/><path d="m334.5 253.5h-120c-4.142 0-7.5 3.357-7.5 7.5s3.358 7.5 7.5 7.5h120c4.143 0 7.5-3.357 7.5-7.5s-3.357-7.5-7.5-7.5z"/><path d="m110 370c0 6.341 5.159 11.5 11.5 11.5h52c6.341 0 11.5-5.159 11.5-11.5v-52c0-6.341-5.159-11.5-11.5-11.5h-52c-6.341 0-11.5 5.159-11.5 11.5zm15-48.5h45v45h-45z"/><path d="m334.5 318.5h-120c-4.142 0-7.5 3.357-7.5 7.5s3.358 7.5 7.5 7.5h120c4.143 0 7.5-3.357 7.5-7.5s-3.357-7.5-7.5-7.5z"/><path d="m334.5 350.5h-120c-4.142 0-7.5 3.357-7.5 7.5s3.358 7.5 7.5 7.5h120c4.143 0 7.5-3.357 7.5-7.5s-3.357-7.5-7.5-7.5z"/><path d="m296.5 35.5h-138c-13.785 0-25 11.215-25 25s11.215 25 25 25h138c13.785 0 25-11.215 25-25s-11.215-25-25-25zm0 35h-138c-5.514 0-10-4.486-10-10s4.486-10 10-10h138c5.514 0 10 4.486 10 10s-4.486 10-10 10z"/></svg>