<?xml version="1.0"?>
<svg xmlns="http://www.w3.org/2000/svg" viewBox="0 0 64 64" width="512" height="512"><g id="money_&#xB7;_ecommerce_&#xB7;_shopping_&#xB7;_buy_&#xB7;_dollar" data-name="money &#xB7; ecommerce &#xB7; shopping &#xB7; buy &#xB7; dollar"><path d="M21,10A14,14,0,1,0,35,24,14.015,14.015,0,0,0,21,10Zm0,26A12,12,0,1,1,33,24,12.013,12.013,0,0,1,21,36Z"/><path d="M19,19h4a1,1,0,0,1,1,1,1,1,0,0,0,2,0,3,3,0,0,0-3-3H22V15a1,1,0,0,0-2,0v2H19a3,3,0,0,0-3,3v2a3,3,0,0,0,3,3h4a1,1,0,0,1,1,1v2a1,1,0,0,1-1,1H19a1,1,0,0,1-1-1,1,1,0,0,0-2,0,3,3,0,0,0,3,3h1v2a1,1,0,0,0,2,0V31h1a3,3,0,0,0,3-3V26a3,3,0,0,0-3-3H19a1,1,0,0,1-1-1V20A1,1,0,0,1,19,19Z"/><path d="M43,21a18.184,18.184,0,0,0-3.22.28A19.06,19.06,0,1,0,24.22,42.71,18.988,18.988,0,1,0,43,21Zm0,7A12,12,0,1,1,31.01,40.12a19.015,19.015,0,0,0,8.41-11.56A11.747,11.747,0,0,1,43,28ZM21,41A17,17,0,1,1,38,24,17.024,17.024,0,0,1,21,41ZM43,57A17.068,17.068,0,0,1,26.18,42.27a19.18,19.18,0,0,0,2.88-1.09A14.028,14.028,0,1,0,39.84,26.37,20.351,20.351,0,0,0,40,24c0-.24-.03-.46-.04-.7A16.988,16.988,0,1,1,43,57Z"/><path d="M45,45H41a1,1,0,0,1-1-1,1,1,0,0,0-2,0,3,3,0,0,0,3,3h1v2a1,1,0,0,0,2,0V47h1a3,3,0,0,0,3-3V42a3,3,0,0,0-3-3H41a1,1,0,0,1-1-1V36a1,1,0,0,1,1-1h4a1,1,0,0,1,1,1,1,1,0,0,0,2,0,3,3,0,0,0-3-3H44V31a1,1,0,0,0-2,0v2H41a3,3,0,0,0-3,3v2a3,3,0,0,0,3,3h4a1,1,0,0,1,1,1v2A1,1,0,0,1,45,45Z"/></g></svg>
